# xmcd CD database file
#
# Track frame offsets:
#	150
#	14292
#	27917
#	41817
#	55257
#	69402
#	84385
#	99017
#	112752
#	125340
#	139030
#	154777
#	169745
#	183877
#	198427
#	212057
#	225720
#	240750
#	254207
#	268937
#	282252
#	296407
#
# Disc length: 4153 seconds
#
# Revision: 0
# Processed by: cddbd v1.4PL0 Copyright (c) Steve Scherf et al.
# Submitted via: CDex 1.50
#
DISCID=2e103716
DTITLE=Sylvester Weaver - Complete Recorded Works - Vol. 1
DYEAR=1992
DGENRE=Blues
TTITLE0=Guitar Blues
TTITLE1=Guitar Rag
TTITLE2=Weaver's Blues
TTITLE3=Smoketown Strut
TTITLE4=Mixing Them Up In C
TTITLE5=I'm Busy And You Can't Come In
TTITLE6=Steel String Blues
TTITLE7=Where Shall I Be?
TTITLE8=I Am Happy In Jesus
TTITLE9=Gonna Ramble Blues
TTITLE10=Teasing Brown Blues
TTITLE11=True Love Blues
TTITLE12=Poor Boy Blues
TTITLE13=Six-String Banjo Piece
TTITLE14=Damfino Stump
TTITLE15=Guitar Rag
TTITLE16=Loving Is What I Crave
TTITLE17=Useless Blues
TTITLE18=Black Hearse Blues
TTITLE19=Orn'ry Blues
TTITLE20=Dad's Blues
TTITLE21=What Makes A Man Blue
EXTD=YEAR: 1992
EXTT0=
EXTT1=
EXTT2=
EXTT3=
EXTT4=
EXTT5=
EXTT6=
EXTT7=
EXTT8=
EXTT9=
EXTT10=
EXTT11=
EXTT12=
EXTT13=
EXTT14=
EXTT15=
EXTT16=
EXTT17=
EXTT18=
EXTT19=
EXTT20=
EXTT21=
PLAYORDER=
